<?xml version="1.0" encoding="utf-8"?>
<!-- Generator: Adobe Illustrator 18.0.0, SVG Export Plug-In . SVG Version: 6.00 Build 0)  -->
<!DOCTYPE svg PUBLIC "-//W3C//DTD SVG 1.1//EN" "http://www.w3.org/Graphics/SVG/1.1/DTD/svg11.dtd">
<svg version="1.1" id="Layer_1" xmlns="http://www.w3.org/2000/svg" xmlns:xlink="http://www.w3.org/1999/xlink" x="0px" y="0px"
	 viewBox="0 0 343.6 121.1" enable-background="new 0 0 343.6 121.1" xml:space="preserve">
<g>
	<path fill="#99CACD" d="M0,29.3c0.4-6.4,0.7-12.8,1.2-19.1C1.6,5,4.5,1.4,9.8,0.7c19.7-2.5,34.9,1.1,46.9,20
		c9.9,15.6,7.2,33.1-7,46.5c-2.9,2.7-3,3.8,0.2,6.4c9.5,7.3,11.1,21.5,3.9,32c-7.6,11.1-18.6,15.7-31.8,15.5
		c-5.3-0.1-7.9-3.8-9.6-8.2c-3.1-8.1-5.6-16.4-6.8-25C3,68.4,0.4,48.9,0,29.3z M22.4,35.4c0.8,8.6,1.6,17.2,2.2,25.8
		c0.2,2.8,1.1,3.1,3.3,1.5c6.7-4.9,10.7-11.4,11.3-19.7c0.7-10.2-3-18.6-11.1-24.9c-1.3-1-3-2.1-4.6-1.4c-1.6,0.7-1.7,2.7-1.8,4.1
		 M26.5,82.5c0.8,6.3,1,12.8,2.7,19c1.2,4.5,3.1,5,6.6,1.8c7.1-6.4,4.9-18.7-4.3-24c-1.4-0.8-3.1-2.1-4.6-1.2
		C25.5,79.1,26.7,81,26.5,82.5z"/>
	<path fill="#99CACD" d="M285.3,72.7c2.8-0.8,4.3-2.8,6.2-4c5.6-3.7,11.1-3.1,15.7,1.9c1.7,1.9,3.1,4,3.9,6.3
		c3.2,8.8,6.2,17.6,8.1,26.8c1.2,5.6-0.9,9.2-6,10.9c-4.9,1.6-8.5,0.1-10.8-5.3c-2.6-5.9-4.7-12.1-7.2-18.5
		c-2.7,1.4-4.7,3.3-6.2,5.9c-1.1,2-2.2,4.1-3.5,6.1c-2.1,3.2-4.9,5.6-9.1,5c-3.9-0.5-5.4-3.5-6.7-6.7c-3.6-8.8-3.9-18.2-4.3-27.5
		c-0.7-14.8-0.5-29.7,1.9-44.4c0.9-5.1,2.3-10.1,4.4-14.8c1-2.2,2.2-4.1,4.1-5.6c5.4-4.6,11.5-3.1,13.8,3.6
		c3.6,10.9,2.2,21.5-2.9,31.5C282.1,53.3,283.5,62.8,285.3,72.7z"/>
	<path fill="#99CACD" d="M117.7,113.4c-4,0.1-7.8-2.3-10.7-6.3c-3.8-5.1-5.3-11.1-5.4-17.4c-0.2-7.8-0.3-15.6-0.4-23.5
		c0-2.7-0.2-4.6-3.8-4.9c-3-0.2-6.8-1-7.1-5c-0.3-4.1,1.9-7.4,5.9-8.1c5.5-1,6.7-4.3,7-9c0.3-4.3,1.1-8.6,1.8-12.9
		c0.7-4,3.1-6.1,7.2-6.1c4.3,0,6.9,2,7.7,6.3c1,5.4,1.2,10.9,1.1,16.4c-0.1,3.9,0.8,6.6,5.3,6.7c0.3,0,0.7,0.1,1,0.2
		c3.1,1.2,7.1,1.9,7.2,5.9c0.1,4.3-4,4.9-7.2,5.5c-4.9,0.8-7,3.2-6.9,8.5c0.2,6.8-0.3,13.6-0.6,20.5c-0.2,3.3,0.7,5.9,4,7.3
		c4.1,1.8,5.8,5,4.6,9.3C127,111.6,123.4,113.4,117.7,113.4z"/>
	<path fill="#99CACD" d="M190.8,87.6c0,1.4-0.5,3.4,1.4,3.8c1.6,0.4,2.8-1,3.6-2.2c2.5-3.5,4.9-7.1,7.4-10.7c2.1-3,4.1-6.1,6.5-8.8
		c4.5-5.2,11.7-3.8,13.1,2.8c1.9,9.5,1.4,19.2,0.2,28.8c-0.3,2.2-1.7,4.1-4.1,4.5c-2.4,0.4-3.9-1.3-5.5-2.8
		c-2.2-2.1-2.1-7.1-5.3-6.8c-2.1,0.2-3.8,4.3-5.8,6.4c-1.8,1.9-3.8,3.8-5.9,5.3c-8.1,5.4-17.6,2.9-20.9-6.3
		c-5-14.1-4.5-28.4,1.3-42.4c1.7-4,5.1-6.3,9.6-5.6c4.5,0.7,4.9,4.7,5.1,8.1c0.3,4.6,0.1,9.3,0.1,14"/>
	<path fill="#99CACD" d="M160.3,53.4c-2.6-0.2-5.9,0-7.8,3.5c-2.1,3.8-0.5,7,1.7,10.2c3.7,5.5,7.8,10.8,11.1,16.6
		c7.2,12.4,2.4,27.1-10.2,32.2c-3.6,1.5-7,1.7-10.2-1.1c-4.7-4.1-5.1-7.7-0.9-12.3c7.5-8.5,7.5-8.5,0-17.5
		c-9.7-11.6-10.9-23.9-3.1-34.2c5.1-6.7,11.7-10.7,20.5-10.4c2,0.1,3.9,0.5,5.7,1.5c2.8,1.5,4.2,3.8,3.5,7c-0.7,3-3,4.2-5.8,4.6
		C163.5,53.5,162.3,53.4,160.3,53.4z"/>
	<path fill="#99CACD" d="M251.7,53.5c-3.5-0.3-6.7,0-8.7,3.5c-2,3.6-0.5,6.7,1.6,9.8c3.8,5.7,8,11.1,11.4,17
		c7,12.2,2.6,26.1-9.6,31.7c-2.3,1.1-4.7,1.8-7.3,1.4c-5.3-0.7-8-6.3-4.5-10.4c8.9-10.4,6.3-14.2-1-22.8c-13.8-16.1-5.9-35,8.2-41.5
		c4.4-2,9-2.6,13.6-1.3c3.4,1,6.3,3,5.9,7c-0.5,4.3-3.7,5.6-7.6,5.6C253,53.5,252.3,53.4,251.7,53.5z"/>
	<path fill="#99CACD" d="M88.6,98.2c0,2,0.1,4,0,6c-0.2,5.9-2.5,8.6-7.6,9.4c-5.5,0.8-8.5-1.1-10.8-6.5c-2.9-7-2.5-14.4-2.5-21.7
		c0-6.8,0.7-13.6,1.4-20.4c0.4-4.6,3.1-7.3,7.9-7.5c4.7-0.2,6.8,2.8,7.5,7c1,6.1,2.2,12.1,3,18.2"/>
	<path fill="#99CACD" d="M343.5,94.8c0,4.7,0.1,9.3,0,14c-0.2,4.8-3,7.2-7.6,7.7c-4.5,0.5-8.2-0.7-10.1-5.3
		c-3.2-7.7-2.4-15.7-1.9-23.7c0.4-6.5,1.3-12.9,2.3-19.3c0.8-5.4,3.6-7.8,8.1-7.8c4.5,0,6.7,2.3,7.6,8.1
		C343,77.2,343.9,86,343.5,94.8z"/>
	<path fill="#99CACD" d="M67.5,43.9c0.1-5.9,4.3-9.9,10.3-9.7c5.2,0.2,9.2,4.2,9.1,9.3c-0.1,5-5.3,9.5-11,9.5
		C70.7,52.9,67.4,49.4,67.5,43.9z"/>
	<path fill="#99CACD" d="M342.8,48c0,5.4-3.9,9.4-9,9.3c-5.1-0.1-9-4.1-8.9-8.9c0.1-4.6,4.4-8.1,9.7-7.9
		C339.5,40.5,342.8,43.6,342.8,48z"/>
</g>
</svg>
